<?xml version="1.0" encoding="UTF-8"?>
<svg width="72px" height="48px" viewBox="0 0 72 48" version="1.1" xmlns="http://www.w3.org/2000/svg" xmlns:xlink="http://www.w3.org/1999/xlink">
    <title>diff</title>
    <g id="light/diff" stroke="none" fill="none">
        <path d="M61.5133882,3.06616131 L61.6967605,3.23223309 L68.7678283,10.3033009 C69.2366693,10.7721418 69.5000614,11.4080266 69.5000614,12.0710678 L69.5000614,43 C69.5000614,44.3807119 68.3807733,45.5 67.0000614,45.5 L17,45.5 C15.6192881,45.5 14.5,44.3807119 14.5,43 L14.5,5 C14.5,3.61928813 15.6192881,2.5 17,2.5 L59.9289936,2.5 C60.5091546,2.5 61.0685241,2.70165958 61.5133882,3.06616131 Z" id="Rectangle" stroke="#2A2A2A" stroke-width="5" fill="#767676" fill-rule="nonzero"></path>
        <g id="编组" stroke-width="1" fill-rule="evenodd" transform="translate(21, 14)">
            <rect id="Rectangle" fill="#21C23A" x="0" y="7" width="20" height="6"></rect>
            <rect id="Rectangle" fill="#F56B63" x="26" y="7" width="16" height="6"></rect>
            <rect id="Rectangle" fill="#21C23A" transform="translate(10, 10) rotate(-270) translate(-10, -10)" x="0" y="7" width="20" height="6"></rect>
        </g>
    </g>
</svg>