<?xml version="1.0" encoding="UTF-8"?>
<svg width="72px" height="48px" viewBox="0 0 72 48" version="1.1" xmlns="http://www.w3.org/2000/svg" xmlns:xlink="http://www.w3.org/1999/xlink">
    <title>python</title>
    <defs>
        <path d="M17,0 L59.9289936,0 C61.255076,0 62.5268456,0.526784202 63.4645275,1.46446609 L70.5355953,8.53553391 C71.4732772,9.4732158 72.0000614,10.7449854 72.0000614,12.0710678 L72.0000614,43 C72.0000614,45.7614237 69.7614851,48 67.0000614,48 L17,48 C14.2385763,48 12,45.7614237 12,43 L12,5 C12,2.23857625 14.2385763,0 17,0 Z" id="path-1"></path>
        <path d="M42,0 L42,16 C42,19.3137085 39.3137085,22 36,22 L24,22 C18.4771525,22 14,26.4771525 14,32 L14,48 L0,48 L0,0 L42,0 Z" id="path-3"></path>
    </defs>
    <g id="python" stroke="none" fill="none">
        <mask id="mask-2" fill="white">
            <use xlink:href="#path-1"></use>
        </mask>
        <g id="Rectangle" fill-rule="nonzero"></g>
        <g id="编组" stroke-width="1" fill-rule="evenodd" mask="url(#mask-2)">
            <g transform="translate(12, 0)">
                <path d="M60,0 L60,48 L18,48 L18,32 C18,28.6862915 20.6862915,26 24,26 L36,26 C41.5228475,26 46,21.5228475 46,16 L46,0 L60,0 Z" id="Combined-Shape" stroke="none" fill="#F7D54B" fill-rule="evenodd"></path>
                <mask id="mask-4" fill="white">
                    <use xlink:href="#path-3"></use>
                </mask>
                <use id="Combined-Shape" stroke="none" fill="#3A78AC" fill-rule="evenodd" xlink:href="#path-3"></use>
            </g>
        </g>
    </g>
</svg>